<svg version="1.1" width="125" height="125" id="Layer_1" xmlns="http://www.w3.org/2000/svg" xmlns:xlink="http://www.w3.org/1999/xlink" x="0px" y="0px"
	 viewBox="0 0 388.1 391.9" style="enable-background:new 0 0 388.1 391.9;" xml:space="preserve">
<style type="text/css">
	.st0{fill-rule:evenodd;clip-rule:evenodd;fill:#FF6600;}
	.st1{fill-rule:evenodd;clip-rule:evenodd;fill:#1233ED;}
	.st2{fill-rule:evenodd;clip-rule:evenodd;fill:#C21C1C;}
	.st3{fill:#FFFFFF;}
</style>
<polygon class="st0" points="208.1,29.4 102.5,133.4 102.5,133.5 131.4,105.1 26.1,208.7 0,103.6 107.4,0 "/>
<polygon class="st1" points="350.9,68.9 388.1,212.3 311.5,287.8 274.2,144.5 131.4,105.1 102.5,133.5 102.5,133.4 208.1,29.4 "/>
<polygon class="st2" points="274.2,144.5 311.5,288 205.9,391.9 63,352.5 25.8,209 131.4,105.1 "/>
<path class="st3" d="M152.8,218.5c14.3,0,86.1,5.2,86.1,23.3c0,13.9-48.1,36.6-79.1,36.9c-11.2,0-38.7-4.2-38.7-19.2
	c0-7.3,7.7-15,12.2-19.9L152.8,218.5z M168.1,201.1l7-6.3c40.8-8,146.4-22.3,146.4-78.8c0-18.8-14.3-42.5-74.2-42.5
	c-36.2,0-101.4,13.6-135.2,26.5c-11.8,4.5-22,17.8-29.3,27.5c-10.8,14.3-16,26.8-16,29.3c0,5.9,2.8,9.4,8.7,9.4
	c3.8,0,7.7-1.4,10.8-2.4c20.2-6.6,26.8-9.8,48.4-13.2c4.5-0.7,12.5-2.8,12.5-8c0-2.8-2.8-4.2-4.9-5.2c53-19.2,89.9-23.7,97.9-24.4
	c40.4-2.8,50.2,9.4,50.5,17.1c0.7,9.4-17.8,33.1-96.5,43.9c28.9-33.8,31.4-38.3,33.8-44.3c-34.8,0-57.8,29.3-80.5,51.2
	c-10.5,3.1-59.2,3.8-59.2,18.8c0,11.8,22.3,12.9,32.1,13.6c-40.4,53.3-38.7,55.1-38.7,66.2c0,31.7,34.8,40.1,59.9,38.7
	c93.7-5.2,136.6-52.3,136.6-72.1C278.2,212.6,192.9,205.7,168.1,201.1z"/>
</svg>
