<?xml version="1.0" encoding="utf-8"?>
<!-- Generator: Adobe Illustrator 24.0.1, SVG Export Plug-In . SVG Version: 6.00 Build 0)  -->
<svg version="1.1" id="Layer_1" xmlns="http://www.w3.org/2000/svg" xmlns:xlink="http://www.w3.org/1999/xlink" x="0px" y="0px"
	 viewBox="0 0 356 181.1" width="300" height="150" style="enable-background:new 0 0 356 181.1;" xml:space="preserve">
<style type="text/css">
	.st0{fill:#F69322;}
	.st1{fill:#1845FF;}
	.st2{fill:#E92629;}
	.st3{fill:#6CA442;}
</style>
<g>
	<path d="M56,52.1c0,2.9-0.6,5.6-1.7,8.2c-1.1,2.5-2.6,4.8-4.5,6.7s-4.1,3.4-6.7,4.5c-2.5,1.1-5.3,1.7-8.2,1.7H0v-70h35
		c2.9,0,5.6,0.6,8.2,1.7c2.5,1.1,4.8,2.6,6.7,4.5s3.4,4.1,4.5,6.7c1.1,2.5,1.7,5.3,1.7,8.2c0,1.3-0.2,2.6-0.5,4
		c-0.4,1.4-0.9,2.7-1.5,4c-0.7,1.3-1.4,2.4-2.3,3.5c-0.9,1-1.9,1.9-3,2.6c1.1,0.6,2.2,1.5,3.1,2.5c0.9,1.1,1.7,2.2,2.3,3.5
		c0.7,1.3,1.1,2.6,1.5,4C55.8,49.5,56,50.8,56,52.1z M14,31.1h21c1,0,1.9-0.2,2.7-0.5c0.8-0.4,1.6-0.9,2.2-1.5s1.1-1.4,1.5-2.2
		C41.8,26,42,25,42,24.1s-0.2-1.9-0.5-2.7c-0.4-0.8-0.9-1.6-1.5-2.2s-1.4-1.1-2.2-1.5c-0.8-0.4-1.8-0.5-2.7-0.5H14V31.1z M14,59.1
		h21c1,0,1.9-0.2,2.7-0.5c0.8-0.4,1.6-0.9,2.2-1.5s1.1-1.4,1.5-2.2c0.4-0.8,0.5-1.8,0.5-2.7s-0.2-1.9-0.5-2.7
		c-0.4-0.8-0.9-1.6-1.5-2.2s-1.4-1.1-2.2-1.5c-0.8-0.4-1.8-0.5-2.7-0.5H14V59.1z"/>
	<path d="M78.6,73.1H65.2V0h13.4V73.1z"/>
	<path d="M197.3,66.5c0,3.7-0.7,7.1-2.1,10.4c-1.4,3.2-3.3,6-5.7,8.4c-2.4,2.4-5.3,4.3-8.5,5.7c-3.2,1.4-6.7,2.1-10.4,2.1l-6.7-0.1
		V79.7l6.6,0.1c2.1,0,3.9-0.3,5.3-0.8s2.7-1.3,3.7-2.2c1-0.9,1.8-2,2.4-3.2c0.6-1.2,1.1-2.5,1.4-3.8c-0.5,0.8-1.3,1.5-2.2,2.1
		s-2.1,1-3.2,1.3c-1.2,0.3-2.4,0.6-3.7,0.7c-1.3,0.1-2.5,0.2-3.6,0.2c-3.7,0-7.1-0.6-10.4-1.9c-3.2-1.3-6.1-3.1-8.5-5.4
		c-2.4-2.4-4.3-5.2-5.7-8.7c-1.4-3.4-2.1-7.3-2.1-11.6c0-3.9,0.7-7.6,2.1-11c1.4-3.4,3.3-6.3,5.7-8.8c2.4-2.5,5.3-4.4,8.5-5.8
		c3.2-1.4,6.7-2.1,10.4-2.1c1.7,0,3.4,0.2,5,0.6c1.7,0.4,3.3,1,4.8,1.8c1.6,0.7,3.1,1.6,4.5,2.6c1.4,1,2.7,2.1,4,3.3l5.2-6.2h3.2
		V66.5z M183.9,46.5c0-1.8-0.4-3.6-1-5.3c-0.7-1.7-1.7-3.2-2.9-4.5c-1.2-1.3-2.6-2.4-4.2-3.2c-1.6-0.8-3.3-1.2-5.2-1.2
		c-1.8,0-3.5,0.3-5.2,0.9c-1.6,0.6-3,1.5-4.2,2.7c-1.2,1.2-2.1,2.7-2.8,4.5c-0.7,1.8-1,3.8-1,6.1c0,2.2,0.3,4.1,1,5.9
		c0.7,1.7,1.6,3.2,2.8,4.5c1.2,1.2,2.6,2.2,4.2,2.9c1.6,0.7,3.3,1,5.2,1c1.8,0,3.5-0.4,5.2-1.2c1.6-0.8,3-1.9,4.2-3.2
		c1.2-1.3,2.2-2.8,2.9-4.5C183.5,50.1,183.9,48.3,183.9,46.5z"/>
	<path d="M258.1,66.5c0,3.7-0.7,7.1-2.1,10.4s-3.3,6-5.7,8.4c-2.4,2.4-5.3,4.3-8.5,5.7c-3.2,1.4-6.7,2.1-10.4,2.1l-6.7-0.1V79.7
		l6.6,0.1c2.1,0,3.9-0.3,5.3-0.8s2.7-1.3,3.7-2.2s1.8-2,2.4-3.2c0.6-1.2,1.1-2.5,1.4-3.8c-0.5,0.8-1.3,1.5-2.2,2.1s-2.1,1-3.2,1.3
		c-1.2,0.3-2.4,0.6-3.7,0.7c-1.3,0.1-2.5,0.2-3.6,0.2c-3.7,0-7.1-0.6-10.4-1.9c-3.2-1.3-6.1-3.1-8.5-5.4c-2.4-2.4-4.3-5.2-5.7-8.7
		s-2.1-7.3-2.1-11.6c0-3.9,0.7-7.6,2.1-11c1.4-3.4,3.3-6.3,5.7-8.8c2.4-2.5,5.3-4.4,8.5-5.8c3.2-1.4,6.7-2.1,10.4-2.1
		c1.7,0,3.4,0.2,5,0.6c1.7,0.4,3.3,1,4.8,1.8c1.6,0.7,3.1,1.6,4.5,2.6c1.4,1,2.7,2.1,4,3.3l5.2-6.2h3.2V66.5z M244.7,46.5
		c0-1.8-0.3-3.6-1-5.3c-0.7-1.7-1.7-3.2-2.9-4.5s-2.6-2.4-4.2-3.2c-1.6-0.8-3.3-1.2-5.2-1.2s-3.5,0.3-5.2,0.9
		c-1.6,0.6-3,1.5-4.2,2.7c-1.2,1.2-2.1,2.7-2.8,4.5c-0.7,1.8-1,3.8-1,6.1c0,2.2,0.3,4.1,1,5.9c0.7,1.7,1.6,3.2,2.8,4.5
		c1.2,1.2,2.6,2.2,4.2,2.9c1.6,0.7,3.3,1,5.2,1s3.5-0.4,5.2-1.2c1.6-0.8,3-1.9,4.2-3.2s2.2-2.8,2.9-4.5
		C244.3,50.1,244.7,48.3,244.7,46.5z"/>
	<path d="M289.1,60.3c0.5,0.2,1,0.3,1.6,0.3c0.5,0,1,0.1,1.6,0.1c1.3,0,2.6-0.2,3.8-0.5c1.2-0.4,2.3-0.9,3.4-1.5
		c1.1-0.7,2-1.5,2.8-2.4c0.8-1,1.5-2,2-3.2l9.8,9.8c-1.2,1.8-2.7,3.3-4.3,4.7c-1.6,1.4-3.4,2.6-5.2,3.6c-1.9,1-3.8,1.7-5.9,2.2
		c-2.1,0.5-4.2,0.8-6.4,0.8c-3.7,0-7.1-0.7-10.4-2.1c-3.2-1.4-6.1-3.3-8.5-5.7c-2.4-2.4-4.3-5.3-5.7-8.7c-1.4-3.4-2.1-7.1-2.1-11.1
		c0-4.1,0.7-7.9,2.1-11.3c1.4-3.4,3.3-6.3,5.7-8.7c2.4-2.4,5.3-4.3,8.5-5.6c3.2-1.3,6.7-2,10.4-2c2.2,0,4.3,0.3,6.4,0.8
		c2.1,0.5,4.1,1.3,5.9,2.2c1.9,1,3.6,2.2,5.2,3.6c1.6,1.4,3.1,3,4.3,4.8L289.1,60.3z M295.9,32.8c-0.6-0.2-1.2-0.4-1.8-0.4
		c-0.6-0.1-1.2-0.1-1.9-0.1c-1.8,0-3.5,0.3-5.2,1c-1.6,0.7-3,1.6-4.2,2.9c-1.2,1.2-2.1,2.7-2.8,4.5c-0.7,1.7-1,3.7-1,5.9
		c0,0.5,0,1,0.1,1.7c0,0.6,0.1,1.2,0.2,1.9c0.1,0.6,0.3,1.2,0.4,1.8c0.2,0.6,0.4,1.1,0.6,1.6L295.9,32.8z"/>
	<path d="M334.1,73.1h-13.3V20.8h3.2l4.4,6.2c2.1-2,4.6-3.5,7.3-4.5c2.7-1.1,5.6-1.6,8.5-1.6H356v13.3h-11.8c-1.4,0-2.7,0.3-4,0.8
		c-1.2,0.5-2.3,1.2-3.2,2.1c-0.9,0.9-1.6,2-2.1,3.2c-0.5,1.2-0.8,2.6-0.8,4V73.1z"/>
	<path d="M16,161.1H2v-70h28c2.6,0,5,0.3,7.4,1c2.4,0.7,4.6,1.6,6.7,2.8c2.1,1.2,4,2.7,5.7,4.4s3.2,3.6,4.4,5.7
		c1.2,2.1,2.2,4.3,2.8,6.7c0.7,2.4,1,4.9,1,7.4c0,2.4-0.3,4.8-0.9,7c-0.6,2.3-1.5,4.4-2.6,6.5s-2.5,3.9-4.1,5.7
		c-1.6,1.7-3.5,3.2-5.5,4.5l7.8,18.3H37.8L31.7,147L16,147.1V161.1z M16,105.1v28h14c1.9,0,3.7-0.4,5.4-1.1c1.7-0.7,3.2-1.7,4.4-3
		s2.3-2.8,3-4.5s1.1-3.5,1.1-5.4c0-1.9-0.4-3.7-1.1-5.4s-1.7-3.2-3-4.5s-2.8-2.3-4.4-3c-1.7-0.7-3.5-1.1-5.4-1.1H16z"/>
	<path d="M86,148.3c0.5,0.2,1,0.3,1.6,0.3c0.5,0,1,0.1,1.6,0.1c1.3,0,2.6-0.2,3.8-0.5c1.2-0.4,2.3-0.9,3.4-1.5
		c1.1-0.7,2-1.5,2.8-2.4c0.8-1,1.5-2,2-3.2l9.8,9.8c-1.2,1.8-2.7,3.3-4.3,4.7c-1.6,1.4-3.4,2.6-5.2,3.6c-1.9,1-3.8,1.7-5.9,2.2
		c-2.1,0.5-4.2,0.8-6.4,0.8c-3.7,0-7.1-0.7-10.4-2.1c-3.2-1.4-6.1-3.3-8.5-5.7c-2.4-2.4-4.3-5.3-5.7-8.7c-1.4-3.4-2.1-7.1-2.1-11.1
		c0-4.1,0.7-7.9,2.1-11.3c1.4-3.4,3.3-6.3,5.7-8.7c2.4-2.4,5.3-4.3,8.5-5.6c3.2-1.3,6.7-2,10.4-2c2.2,0,4.3,0.3,6.4,0.8
		c2.1,0.5,4.1,1.3,5.9,2.2c1.9,1,3.6,2.2,5.2,3.6c1.6,1.4,3.1,3,4.3,4.8L86,148.3z M92.8,120.8c-0.6-0.2-1.2-0.4-1.8-0.4
		c-0.6-0.1-1.2-0.1-1.9-0.1c-1.8,0-3.5,0.3-5.2,1c-1.6,0.7-3,1.6-4.2,2.9c-1.2,1.2-2.1,2.7-2.8,4.5c-0.7,1.7-1,3.7-1,5.9
		c0,0.5,0,1,0.1,1.7c0,0.6,0.1,1.2,0.2,1.9c0.1,0.6,0.3,1.2,0.4,1.8c0.2,0.6,0.4,1.1,0.6,1.6L92.8,120.8z"/>
	<path d="M97.8,181v-13.4l7.4,0.1c1.8,0,3.5-0.4,5-1.1c1.5-0.7,2.9-1.7,4-2.9s2-2.6,2.7-4.2c0.7-1.6,1-3.3,1-5v-45.6h13.6v45.6h-0.1
		c0,2.4-0.4,4.8-1,7.1s-1.5,4.4-2.7,6.4c-1.2,2-2.6,3.8-4.2,5.4c-1.6,1.6-3.4,3-5.4,4.2c-2,1.2-4.1,2.1-6.3,2.7s-4.6,1-7.1,1H97.8z
		 M133.6,94.6c0,1.2-0.2,2.4-0.7,3.5c-0.5,1.1-1.1,2-1.9,2.8c-0.8,0.8-1.7,1.4-2.8,1.9c-1.1,0.5-2.2,0.7-3.4,0.7
		c-1.3,0-2.4-0.2-3.5-0.7c-1.1-0.5-2-1.1-2.9-1.9c-0.8-0.8-1.5-1.7-1.9-2.8c-0.5-1.1-0.7-2.2-0.7-3.5c0-1.2,0.2-2.4,0.7-3.4
		c0.5-1.1,1.1-2,1.9-2.8c0.8-0.8,1.8-1.4,2.9-1.9c1.1-0.5,2.3-0.7,3.5-0.7c1.2,0,2.4,0.2,3.4,0.7c1.1,0.5,2,1.1,2.8,1.9
		c0.8,0.8,1.4,1.7,1.9,2.8C133.4,92.2,133.6,93.4,133.6,94.6z"/>
	<path d="M157.2,94.6c0,1.2-0.2,2.4-0.7,3.5c-0.5,1.1-1.1,2-1.9,2.8c-0.8,0.8-1.8,1.4-2.9,1.9c-1.1,0.5-2.3,0.7-3.5,0.7
		c-1.2,0-2.4-0.2-3.5-0.7c-1.1-0.5-2-1.1-2.8-1.9c-0.8-0.8-1.4-1.7-1.9-2.8c-0.5-1.1-0.7-2.2-0.7-3.5c0-1.2,0.2-2.4,0.7-3.4
		c0.5-1.1,1.1-2,1.9-2.8c0.8-0.8,1.7-1.4,2.8-1.9c1.1-0.5,2.3-0.7,3.5-0.7c1.2,0,2.4,0.2,3.5,0.7c1.1,0.5,2,1.1,2.9,1.9
		c0.8,0.8,1.5,1.7,1.9,2.8C156.9,92.2,157.2,93.4,157.2,94.6z M154.9,161.1h-13.4v-52.3h13.4V161.1z"/>
	<path d="M215.7,154.5c0,3.7-0.7,7.1-2.1,10.4s-3.3,6-5.7,8.4c-2.4,2.4-5.3,4.3-8.5,5.7c-3.2,1.4-6.7,2.1-10.4,2.1l-6.7-0.1v-13.3
		l6.6,0.1c2.1,0,3.9-0.3,5.3-0.8s2.7-1.3,3.7-2.2c1-0.9,1.8-2,2.4-3.2c0.6-1.2,1.1-2.5,1.4-3.8c-0.5,0.8-1.3,1.5-2.2,2.1
		s-2.1,1-3.2,1.3c-1.2,0.3-2.4,0.6-3.7,0.7c-1.3,0.1-2.5,0.2-3.6,0.2c-3.7,0-7.1-0.6-10.4-1.9c-3.2-1.3-6.1-3.1-8.5-5.4
		c-2.4-2.4-4.3-5.2-5.7-8.7c-1.4-3.4-2.1-7.3-2.1-11.6c0-3.9,0.7-7.6,2.1-11c1.4-3.4,3.3-6.3,5.7-8.8c2.4-2.5,5.3-4.4,8.5-5.8
		c3.2-1.4,6.7-2.1,10.4-2.1c1.7,0,3.4,0.2,5,0.6c1.7,0.4,3.3,1,4.8,1.8c1.6,0.7,3.1,1.6,4.5,2.6c1.4,1,2.7,2.1,4,3.3l5.2-6.2h3.2
		V154.5z M202.2,134.5c0-1.8-0.4-3.6-1-5.3c-0.7-1.7-1.7-3.2-2.9-4.5c-1.2-1.3-2.6-2.4-4.2-3.2c-1.6-0.8-3.3-1.2-5.2-1.2
		c-1.8,0-3.5,0.3-5.2,0.9c-1.6,0.6-3,1.5-4.2,2.7c-1.2,1.2-2.1,2.7-2.8,4.5c-0.7,1.8-1,3.8-1,6.1c0,2.2,0.3,4.1,1,5.9
		c0.7,1.7,1.6,3.2,2.8,4.5c1.2,1.2,2.6,2.2,4.2,2.9c1.6,0.7,3.3,1,5.2,1c1.8,0,3.5-0.4,5.2-1.2c1.6-0.8,3-1.9,4.2-3.2
		c1.2-1.3,2.2-2.8,2.9-4.5C201.9,138.1,202.2,136.3,202.2,134.5z"/>
	<g id="XMLID_1397_">
		<path id="XMLID_1398_" class="st0" d="M85.2,41.2c-0.3,1.3-0.4,2.7-0.5,4.1h15.7c0.6-5.7,5.1-10.3,10.9-10.9V18.8
			c-0.5,0-1,0.1-1.4,0.1l-0.7,5c-1.5,0.2-3,0.6-4.5,1.1l-3-4.1c-1.6,0.7-3.2,1.5-4.7,2.5l1.7,4.8c-1.2,0.9-2.3,1.9-3.3,3l-4.5-2.2
			c-1.1,1.4-2.1,2.9-3,4.5l3.8,3.5c-0.6,1.3-1,2.6-1.4,4L85.2,41.2z"/>
		<path id="XMLID_1399_" class="st1" d="M113.6,34.4c5.7,0.6,10.3,5.1,10.9,10.9h15.7c-0.1-1.4-0.2-2.7-0.5-4.1l-5.1-0.1
			c-0.3-1.4-0.8-2.7-1.4-4l3.8-3.5c-0.8-1.6-1.8-3.1-3-4.5l-4.5,2.2c-1-1.1-2.1-2.1-3.3-3l1.7-4.8c-1.5-1-3-1.8-4.7-2.5l-3,4.1
			c-1.4-0.5-2.9-0.9-4.5-1.1l-0.7-5c-0.5,0-1-0.1-1.4-0.1V34.4z"/>
		<path id="XMLID_1402_" class="st2" d="M135.2,48l-0.1-0.4h-10.6c-0.6,5.7-5.1,10.3-10.9,10.9v10.7c0.2,0,0.3,0,0.5,0l2,4.9
			c1.9-0.3,3.8-0.7,5.5-1.3l-0.5-5.3c1.1-0.4,2.1-1,3.1-1.6l4.1,3.4c1.5-1.1,3-2.3,4.3-3.7l-2.9-4.4c0.8-0.9,1.5-1.9,2.1-2.9
			l5.2,1.1c0.9-1.6,1.6-3.4,2.1-5.2l-4.5-2.5C134.9,50.6,135.1,49.3,135.2,48z"/>
		<path id="XMLID_1403_" class="st3" d="M111.2,58.5c-5.7-0.6-10.3-5.1-10.9-10.9H89.7V48c0.1,1.3,0.3,2.6,0.6,3.9l-4.5,2.5
			c0.5,1.8,1.2,3.5,2.1,5.2l5.2-1.1c0.6,1,1.4,2,2.1,2.9l-2.9,4.4c1.3,1.4,2.7,2.6,4.3,3.7l4.1-3.4c1,0.6,2,1.1,3.1,1.6l-0.5,5.3
			c1.8,0.6,3.6,1.1,5.5,1.3l2-4.9c0.2,0,0.3,0,0.5,0V58.5z"/>
	</g>
</g>
</svg>
