<?xml version="1.0" encoding="utf-8"?>
<!-- Generator: Adobe Illustrator 24.0.1, SVG Export Plug-In . SVG Version: 6.00 Build 0)  -->
<svg version="1.1" id="Layer_1" xmlns="http://www.w3.org/2000/svg" xmlns:xlink="http://www.w3.org/1999/xlink" x="0px" y="0px"
	 viewBox="0 0 352 512" style="enable-background:new 0 0 352 512;" xml:space="preserve">
<style type="text/css">
	.st0{fill:#BD6428;}
	.st1{fill:#F5F6F6;}
	.st2{fill:#A35623;}
	.st3{fill:#CECECE;}
	.st4{fill:#D17F4D;}
	.st5{fill:#E9E9E9;}
	.st6{fill:#9BA7AF;}
	.st7{fill:#72818B;}
	.st8{fill:#AFBABF;}
	.st9{fill:#3CB54A;}
	.st10{fill:#0E9347;}
	.st11{fill:#89C763;}
	.st12{fill:#FFFFFF;}
	.st13{fill:#DDDFE1;}
</style>
<path class="st0" d="M32,64h288c17.7,0,32,14.3,32,32v384c0,17.7-14.3,32-32,32H32c-17.7,0-32-14.3-32-32V96C0,78.3,14.3,64,32,64z"
	/>
<path class="st1" d="M40,480c-4.4,0-8-3.6-8-8V104c0-4.4,3.6-8,8-8h272c4.4,0,8,3.6,8,8v288l-88,88H40z"/>
<path class="st2" d="M96,96H80V80c0-8.8,7.2-16,16-16l0,0V96z"/>
<path class="st3" d="M320,392h-80c-4.4,0-8,3.6-8,8v80L320,392z"/>
<path class="st4" d="M8,88L8,88c4.4,0,8,3.6,8,8v264c0,4.4-3.6,8-8,8l0,0c-4.4,0-8-3.6-8-8V96C0,91.6,3.6,88,8,88z"/>
<g>
	<path class="st5" d="M224,408v16c0,4.4-3.6,8-8,8l0,0c-4.4,0-8,3.6-8,8s-3.6,8-8,8h-8c-4.4,0-8,3.6-8,8s-3.6,8-8,8H32v8
		c0,4.4,3.6,8,8,8h192v-80C227.6,400,224,403.6,224,408z"/>
	<path class="st5" d="M312,96H80c0.1,2.4,0.1,4.8,0,7.2c-0.4,8.8,6.4,16.3,15.2,16.8c0.3,0,0.6,0,0.8,0h192c8.8,0,16,7.2,16,16v24
		l0,0c0,8.8,7.2,16,16,16l0,0v-72C320,99.6,316.4,96,312,96z"/>
</g>
<path class="st6" d="M228.7,45.1c-7-2.9-12.2-8.8-14.3-16C208.2,7.9,186-4.3,164.8,1.9c-13.1,3.8-23.4,14.1-27.2,27.2
	c-2.1,7.2-7.4,13.1-14.3,16L106.1,52C100,54.4,96,60.3,96,66.8V96c0,8.8,7.2,16,16,16h128c8.8,0,16-7.2,16-16V66.8
	c0-6.5-4-12.4-10.1-14.8L228.7,45.1z M176,56c-8.8,0-16-7.2-16-16s7.2-16,16-16s16,7.2,16,16S184.8,56,176,56z"/>
<path class="st7" d="M232,64c-4.4,0-8,3.6-8,8l0,0c0,4.4-3.6,8-8,8h-16c-4.4,0-8,3.6-8,8l0,0c0,4.4-3.6,8-8,8H96c0,8.8,7.2,16,16,16
	h128c8.8,0,16-7.2,16-16V64H232z"/>
<path class="st8" d="M145,40c-4.4,0.1-8.1-3.3-8.2-7.7c0-0.8,0.1-1.5,0.2-2.3c4.6-17.7,20.6-30.1,39-30c4.4,0,8,3.6,8,8s-3.6,8-8,8
	c-11,0-20.5,7.4-23.3,18C151.8,37.5,148.7,40,145,40z"/>
<path class="st2" d="M320,80h-32c-8.8,0-16-7.2-16-16h-16v32h56c4.4,0,8,3.6,8,8v288l-88,88H40c0,8.8,7.2,16,16,16h194.7
	c8.5,0,16.6-3.4,22.6-9.4l53.3-53.3c6-6,9.4-14.2,9.4-22.6V96C336,87.2,328.8,80,320,80z"/>
<circle class="st9" cx="176" cy="264" r="104"/>
<path class="st10" d="M264,248c-8.8,0-16,7.2-16,16c0,39.8-32.2,72-72,72c-8.8,0-16,7.2-16,16s7.2,16,16,16c57.4,0,104-46.6,104-104
	C280,255.2,272.8,248,264,248z"/>
<path class="st11" d="M88,280c8.8,0,16-7.2,16-16c0-39.8,32.2-72,72-72c8.8,0,16-7.2,16-16s-7.2-16-16-16c-57.4,0-104,46.6-104,104
	C72,272.8,79.2,280,88,280z"/>
<path class="st12" d="M235.3,220.7c-6.2-6.2-16.4-6.3-22.6,0c0,0,0,0,0,0L160,273.4l-19-18.9c-0.5-0.7-1-1.3-1.5-1.8
	c-6.2-6.2-16.4-6.3-22.6,0c0,0,0,0,0,0c-6.2,6.2-6.3,16.4,0,22.6c0,0,0,0,0,0l0,0l32,32c6.2,6.2,16.4,6.3,22.6,0c0,0,0,0,0,0l64-64
	l0,0C241.6,237.1,241.6,226.9,235.3,220.7C235.3,220.7,235.3,220.7,235.3,220.7z"/>
<path class="st13" d="M235.3,220.7c-1.4-1.3-3-2.4-4.7-3.2c2.7,6,1.4,13.1-3.3,17.8l0,0l-64,64c-6.2,6.2-16.4,6.3-22.6,0
	c0,0,0,0,0,0l8,8c6.2,6.2,16.4,6.3,22.6,0c0,0,0,0,0,0l64-64l0,0C241.5,237.1,241.5,227,235.3,220.7
	C235.3,220.7,235.3,220.7,235.3,220.7z"/>
<path class="st10" d="M243.3,228.7c-1.4-1.3-3-2.4-4.7-3.2c2.7,6,1.4,13.1-3.3,17.8l0,0l-64,64c-6.2,6.2-16.4,6.3-22.6,0
	c0,0,0,0,0,0l8,8c6.2,6.2,16.4,6.3,22.6,0c0,0,0,0,0,0l64-64l0,0C249.5,245.1,249.5,235,243.3,228.7
	C243.3,228.7,243.3,228.7,243.3,228.7z"/>
</svg>
