<?xml version="1.0" encoding="utf-8"?>
<!-- Generator: Adobe Illustrator 24.0.1, SVG Export Plug-In . SVG Version: 6.00 Build 0)  -->
<svg version="1.1" id="Layer_1" xmlns="http://www.w3.org/2000/svg" xmlns:xlink="http://www.w3.org/1999/xlink" x="0px" y="0px"
	 viewBox="0 0 189.3 194.4" style="enable-background:new 0 0 189.3 194.4;" xml:space="preserve">
<style type="text/css">
	.st0{fill:#F17424;}
	.st1{fill:#1F008A;}
	.st2{fill:#130015;}
	.st3{fill:#F4001B;}
	.st4{fill:#00E934;}
</style>
<g>
	<g id="XMLID_1_">
		<g>
			<path class="st0" d="M146.9,20.1c9.8,13.4,12.2,29.5-2.2,45.2c28.5,3.9,26.2,63.3-4.9,77.3l-44.4,20.1v-0.2L77,170.7
				c-5.5,2.4-9.8-0.5-9.8-6.8V55.5c0-3.5,2.5-7.4,5.6-8.8l55.3-25l-8.1-3.4L65,43.1c-4.8,2-5.1,3.6-5.1,8v102.4c0,2.7,1,4.9,2.6,5.9
				L59,161c-5.5,2.4-9.8-0.5-9.8-6.8V45.9c0-3.4-0.1-6.2,5.6-8.8l53.1-24l-6.8-2.8l-52,23.5c-4.8,2.2-6.5,4.2-6.5,8.7v102.4
				c0,2.7,1,4.9,2.6,5.9l-3.5,1.6c-5.5,2.4-9.8-0.5-9.8-6.8V37.3c0-3.4,2.5-7.4,5.6-8.8l2.6-1.2L90.9,4.6
				c14.6-6.5,15.6-5.4,25.9-0.9c2.5,1.1,5.9,2.4,9.1,3.9C138.8,13.4,142.7,14.3,146.9,20.1z M107.4,129.9c21.7-9.8,19.9-40.4,0-31.4
				l-22.6,10.2v31.4L107.4,129.9z M107.4,77.4c20.5-9.4,19.9-40.4,0-31.4L84.8,56.2v31.4L107.4,77.4z"/>
		</g>
	</g>
</g>
<g>
	<path class="st1" d="M20.3,190.1c-0.3,0-0.7,0-1.1,0c-0.4,0-0.8,0-1.2-0.1c-0.4,0-0.8-0.1-1.2-0.1c-0.4,0-0.8-0.1-1.2-0.2l-0.8-0.2
		v-15.7l0.8-0.2c0.4-0.1,0.7-0.1,1.2-0.2c0.4,0,0.8-0.1,1.2-0.1c0.4,0,0.8-0.1,1.2-0.1c0.4,0,0.8,0,1.1,0c1,0,2,0.1,2.9,0.2
		c0.9,0.1,1.8,0.4,2.5,0.7c0.8,0.4,1.4,0.9,1.8,1.5c0.5,0.7,0.7,1.5,0.7,2.4c0,1-0.3,1.9-0.9,2.6c-0.1,0.1-0.2,0.2-0.3,0.3
		c0.3,0.2,0.6,0.4,0.8,0.6c0.8,0.7,1.2,1.8,1.2,3c0,1.8-0.8,3.2-2.3,4.1C25.3,189.7,23.2,190.1,20.3,190.1z M19.5,186.4
		c0.3,0,0.6,0,0.9,0c0.6,0,1.3,0,1.8-0.1c0.5-0.1,1-0.2,1.4-0.3c0.3-0.1,0.5-0.3,0.7-0.5c0.1-0.2,0.2-0.4,0.2-0.7
		c0-0.3-0.1-0.5-0.2-0.7c-0.1-0.2-0.3-0.3-0.5-0.4c-0.3-0.1-0.7-0.3-1.1-0.3c-0.5-0.1-1.1-0.1-1.7-0.1h-2v3.2
		C19.3,186.4,19.4,186.4,19.5,186.4z M20.6,179.6c0.5,0,1,0,1.5-0.1c0.4-0.1,0.8-0.2,1-0.3c0.2-0.1,0.4-0.2,0.5-0.4
		c0.1-0.1,0.1-0.3,0.1-0.5c0-0.3-0.1-0.4-0.1-0.4c-0.1-0.2-0.3-0.3-0.5-0.4c-0.3-0.1-0.7-0.2-1.1-0.3c-0.5-0.1-1-0.1-1.5-0.1
		c-0.5,0-1,0-1.3,0v2.6H20.6z"/>
	<path class="st1" d="M20.3,189.1c-0.3,0-0.7,0-1.1,0c-0.4,0-0.8,0-1.2-0.1s-0.8-0.1-1.2-0.1c-0.4,0-0.7-0.1-1.1-0.2v-14.1
		c0.3-0.1,0.7-0.1,1.1-0.2c0.4,0,0.8-0.1,1.2-0.1c0.4,0,0.8,0,1.2-0.1c0.4,0,0.7,0,1.1,0c1,0,1.9,0.1,2.7,0.2
		c0.8,0.1,1.6,0.3,2.2,0.6c0.6,0.3,1.1,0.7,1.5,1.2c0.4,0.5,0.5,1.1,0.5,1.8c0,0.8-0.2,1.5-0.6,2c-0.4,0.5-1,0.9-1.7,1.1
		c1,0.3,1.8,0.7,2.3,1.2c0.6,0.5,0.9,1.3,0.9,2.3c0,1.5-0.6,2.6-1.8,3.3S23,189.1,20.3,189.1z M18.1,180.6h2.5c0.6,0,1.1,0,1.6-0.1
		c0.5-0.1,1-0.2,1.3-0.4c0.4-0.2,0.7-0.4,0.9-0.7c0.2-0.3,0.3-0.7,0.3-1.1c0-0.4-0.1-0.8-0.3-1.1c-0.2-0.3-0.5-0.5-0.9-0.7
		s-0.9-0.3-1.4-0.4S21,176,20.5,176c-0.6,0-1.1,0-1.4,0c-0.3,0-0.6,0-0.9,0.1V180.6z M18.1,182.2v5.1c0.2,0,0.4,0,0.6,0
		c0.2,0,0.5,0,0.7,0c0.3,0,0.6,0,1,0c0.7,0,1.3,0,2-0.1s1.2-0.2,1.6-0.4s0.8-0.5,1.1-0.8s0.4-0.8,0.4-1.3c0-0.5-0.1-0.9-0.3-1.2
		c-0.2-0.3-0.5-0.6-0.9-0.8c-0.4-0.2-0.9-0.3-1.4-0.4c-0.5-0.1-1.2-0.1-1.8-0.1H18.1z"/>
	<path class="st2" d="M34.9,190.2c-1.6,0-2.8-0.4-3.6-1c-0.8-0.7-1.2-1.7-1.2-3.1v-14l4.2-0.6v14.3c0,0.3,0,0.4,0.1,0.5
		c0,0,0.1,0.1,0.2,0.1c0.2,0.1,0.5,0.1,0.8,0.1l1.1,0.1l-0.7,3.5L34.9,190.2z"/>
	<path class="st2" d="M34.9,189.2c-1.4,0-2.4-0.3-2.9-0.8c-0.6-0.5-0.9-1.3-0.9-2.3V173l2.2-0.3v13.1c0,0.3,0,0.6,0.1,0.8
		s0.2,0.4,0.3,0.5s0.3,0.2,0.6,0.3c0.2,0.1,0.5,0.1,0.9,0.2L34.9,189.2z"/>
	<path class="st2" d="M42.9,190.2c-1,0-1.9-0.2-2.7-0.5c-0.8-0.3-1.6-0.8-2.2-1.4c-0.6-0.6-1.1-1.3-1.4-2.1
		c-0.3-0.8-0.5-1.7-0.5-2.7c0-1,0.2-1.9,0.5-2.7c0.3-0.8,0.8-1.6,1.4-2.2c0.6-0.6,1.4-1.1,2.2-1.4c0.8-0.3,1.7-0.5,2.7-0.5
		c1,0,1.9,0.2,2.7,0.5c0.8,0.3,1.6,0.8,2.2,1.4c0.6,0.6,1.1,1.3,1.4,2.2c0.3,0.8,0.5,1.7,0.5,2.7c0,1-0.2,1.9-0.5,2.7
		c-0.3,0.8-0.8,1.5-1.4,2.1c-0.6,0.6-1.4,1.1-2.2,1.4C44.8,190.1,43.8,190.2,42.9,190.2z M42.9,180.5c-0.8,0-1.4,0.2-1.8,0.7
		c-0.5,0.5-0.7,1.3-0.7,2.3c0,1,0.2,1.7,0.7,2.3c0.4,0.5,1,0.7,1.8,0.7s1.4-0.2,1.8-0.7c0.5-0.5,0.7-1.3,0.7-2.3
		c0-1-0.2-1.7-0.7-2.3C44.3,180.7,43.7,180.5,42.9,180.5z"/>
	<path class="st2" d="M48.7,183.5c0,0.9-0.1,1.7-0.4,2.4c-0.3,0.7-0.7,1.3-1.2,1.8s-1.1,0.9-1.9,1.2c-0.7,0.3-1.5,0.4-2.4,0.4
		s-1.6-0.1-2.4-0.4c-0.7-0.3-1.3-0.7-1.9-1.2c-0.5-0.5-0.9-1.1-1.2-1.8c-0.3-0.7-0.4-1.5-0.4-2.4c0-0.9,0.1-1.6,0.4-2.3
		c0.3-0.7,0.7-1.3,1.2-1.8c0.5-0.5,1.1-0.9,1.9-1.2c0.7-0.3,1.5-0.4,2.4-0.4s1.6,0.1,2.4,0.4c0.7,0.3,1.3,0.7,1.9,1.2
		s0.9,1.1,1.2,1.8C48.6,181.9,48.7,182.7,48.7,183.5z M46.4,183.5c0-1.2-0.3-2.2-0.9-2.9c-0.6-0.7-1.5-1.1-2.6-1.1s-2,0.4-2.6,1.1
		c-0.6,0.7-0.9,1.7-0.9,2.9c0,1.2,0.3,2.2,0.9,2.9s1.5,1.1,2.6,1.1s2-0.4,2.6-1.1S46.4,184.7,46.4,183.5z"/>
	<path class="st2" d="M55.9,193.9c-0.8,0-1.6-0.1-2.4-0.2c-0.7-0.1-1.4-0.3-1.9-0.4l-0.9-0.3l0.9-3.7l1,0.4c0.4,0.1,0.9,0.3,1.5,0.4
		c0.6,0.1,1.2,0.2,1.9,0.2c1.4,0,2-0.3,2.3-0.5c0.1-0.1,0.2-0.2,0.3-0.4c-0.6,0.1-1.2,0.2-1.9,0.2c-0.9,0-1.7-0.1-2.4-0.4
		c-0.8-0.3-1.5-0.6-2.1-1.2c-0.6-0.5-1.1-1.2-1.4-2c-0.3-0.8-0.5-1.7-0.5-2.8c0-0.9,0.2-1.8,0.5-2.6c0.3-0.8,0.8-1.5,1.4-2.1
		c0.6-0.6,1.4-1,2.3-1.3c0.9-0.3,1.8-0.5,2.9-0.5c1.1,0,2.1,0.1,2.9,0.2c0.8,0.1,1.5,0.3,2,0.4l0.8,0.2v10.6c0,2-0.6,3.5-1.9,4.4
		C59.9,193.5,58.2,193.9,55.9,193.9z M57.3,180.5c-0.9,0-1.6,0.2-2,0.7c-0.5,0.5-0.7,1.2-0.7,2c0,0.5,0.1,0.9,0.2,1.2
		c0.1,0.3,0.3,0.6,0.5,0.8c0.2,0.2,0.4,0.3,0.7,0.4c0.3,0.1,0.6,0.2,0.9,0.2c0.5,0,0.9-0.1,1.4-0.2c0.2-0.1,0.3-0.1,0.5-0.2v-4.9
		c0,0,0,0,0,0C58.3,180.6,57.9,180.5,57.3,180.5z"/>
	<path class="st2" d="M59.7,187.9c-0.2,0.1-0.6,0.3-1.1,0.4s-1.2,0.3-1.9,0.3c-0.8,0-1.5-0.1-2.1-0.3c-0.7-0.2-1.2-0.5-1.7-1
		c-0.5-0.4-0.9-1-1.2-1.6s-0.4-1.4-0.4-2.4c0-0.8,0.1-1.5,0.4-2.2c0.3-0.7,0.7-1.2,1.2-1.7c0.5-0.5,1.2-0.9,1.9-1.1
		c0.8-0.3,1.6-0.4,2.5-0.4c1,0,2,0.1,2.7,0.2s1.4,0.3,2,0.4v9.7c0,1.7-0.5,2.9-1.5,3.7c-1,0.8-2.5,1.1-4.5,1.1
		c-0.8,0-1.5-0.1-2.2-0.2c-0.7-0.1-1.3-0.2-1.8-0.4l0.4-1.7c0.4,0.2,1,0.3,1.6,0.4c0.6,0.1,1.3,0.2,2,0.2c1.3,0,2.3-0.2,2.9-0.7
		s0.9-1.2,0.9-2.2V187.9z M59.7,179.8c-0.2-0.1-0.5-0.1-0.9-0.2c-0.4,0-0.9-0.1-1.5-0.1c-1.2,0-2.1,0.3-2.8,1c-0.6,0.7-1,1.6-1,2.7
		c0,0.6,0.1,1.2,0.3,1.6s0.4,0.8,0.7,1.1s0.7,0.5,1.1,0.7c0.4,0.1,0.8,0.2,1.3,0.2c0.6,0,1.1-0.1,1.6-0.2c0.5-0.1,0.9-0.3,1.2-0.5
		V179.8z"/>
	<path class="st3" d="M75.9,190.1c-0.7,0-1.5,0-2.3-0.1c-0.9-0.1-1.7-0.2-2.3-0.3l-0.8-0.2v-15.7l0.8-0.2c0.7-0.1,1.5-0.3,2.3-0.3
		c0.8,0,1.6-0.1,2.3-0.1c1.4,0,2.8,0.2,4,0.5c1.3,0.3,2.4,0.8,3.3,1.5c0.9,0.7,1.7,1.6,2.2,2.7c0.5,1.1,0.8,2.3,0.8,3.7
		s-0.3,2.7-0.8,3.7c-0.5,1.1-1.3,2-2.2,2.7c-0.9,0.7-2,1.2-3.3,1.5C78.7,189.9,77.3,190.1,75.9,190.1z M74.8,186.3
		c0.3,0,0.8,0,1.3,0c1.9,0,3.4-0.4,4.3-1.2c0.9-0.8,1.3-1.9,1.3-3.4s-0.4-2.6-1.3-3.4c-0.9-0.8-2.3-1.2-4.3-1.2c-0.5,0-1,0-1.3,0
		V186.3z"/>
	<path class="st3" d="M85.1,181.7c0,1.3-0.2,2.4-0.7,3.3c-0.4,0.9-1.1,1.7-1.9,2.3c-0.8,0.6-1.8,1.1-2.9,1.4
		c-1.1,0.3-2.4,0.5-3.7,0.5c-0.7,0-1.4,0-2.2-0.1c-0.8,0-1.5-0.1-2.2-0.3v-14.1c0.7-0.1,1.4-0.2,2.2-0.3c0.8,0,1.6-0.1,2.2-0.1
		c1.4,0,2.6,0.2,3.7,0.5c1.1,0.3,2.1,0.8,2.9,1.4c0.8,0.6,1.4,1.4,1.9,2.3C84.9,179.3,85.1,180.4,85.1,181.7z M76.1,187.3
		c2.2,0,3.9-0.5,5-1.5c1.1-1,1.6-2.4,1.6-4.1c0-1.8-0.5-3.2-1.6-4.1c-1.1-1-2.7-1.5-5-1.5c-0.7,0-1.2,0-1.5,0c-0.4,0-0.6,0-0.8,0
		v11.1c0.1,0,0.4,0,0.8,0C74.9,187.3,75.4,187.3,76.1,187.3z"/>
	<path class="st2" d="M94.1,190.2c-1.2,0-2.3-0.2-3.2-0.5c-0.9-0.3-1.7-0.8-2.3-1.4c-0.6-0.6-1.1-1.3-1.4-2.2
		c-0.3-0.8-0.4-1.7-0.4-2.6c0-1.1,0.2-2.1,0.6-2.9c0.4-0.8,0.9-1.6,1.5-2.1c0.6-0.6,1.4-1,2.2-1.3c0.8-0.3,1.6-0.4,2.4-0.4
		c2,0,3.5,0.6,4.6,1.7c1.1,1.1,1.6,2.8,1.6,4.9v0.3c0,0.2,0,0.4,0,0.5l-0.1,0.9h-8.2c0.1,0.3,0.3,0.6,0.6,0.8
		c0.5,0.4,1.3,0.6,2.4,0.6c0.7,0,1.3-0.1,1.8-0.2c0.6-0.1,0.9-0.2,1-0.3l1.1-0.5l0.7,3.6l-0.7,0.3c-0.4,0.2-0.9,0.3-1.6,0.5
		C95.8,190.1,95,190.2,94.1,190.2z M95.2,181.5c-0.1-0.2-0.2-0.3-0.3-0.5c-0.2-0.2-0.6-0.5-1.4-0.5c-0.4,0-0.7,0.1-1,0.2
		c-0.3,0.1-0.5,0.3-0.7,0.5c-0.1,0.1-0.2,0.2-0.3,0.4H95.2z"/>
	<path class="st2" d="M87.8,183.5c0-1,0.2-1.8,0.5-2.5c0.3-0.7,0.7-1.3,1.3-1.8c0.5-0.5,1.1-0.8,1.8-1.1c0.7-0.2,1.4-0.4,2.1-0.4
		c1.7,0,3,0.5,3.9,1.4c0.9,0.9,1.3,2.3,1.3,4.2c0,0.1,0,0.2,0,0.3c0,0.1,0,0.3,0,0.4h-8.6c0.1,1.1,0.5,2,1.1,2.6
		c0.7,0.6,1.7,0.9,3.1,0.9c0.8,0,1.4-0.1,2-0.2c0.5-0.1,0.9-0.2,1.2-0.3l0.3,1.6c-0.3,0.1-0.7,0.3-1.4,0.4c-0.7,0.1-1.5,0.2-2.3,0.2
		c-1.1,0-2-0.1-2.8-0.4c-0.8-0.3-1.4-0.7-2-1.2c-0.5-0.5-0.9-1.1-1.1-1.8C87.9,185.1,87.8,184.4,87.8,183.5z M96.3,182.5
		c0-0.9-0.2-1.6-0.8-2.2c-0.5-0.6-1.2-0.9-2.2-0.9c-0.5,0-1,0.1-1.4,0.3c-0.4,0.2-0.7,0.4-1,0.7s-0.5,0.6-0.6,1
		c-0.2,0.4-0.3,0.7-0.3,1.1H96.3z"/>
	<path class="st2" d="M104.4,190l-0.3-0.5c-0.8-1.5-1.6-3.2-2.5-5.1c-0.9-1.9-1.6-3.9-2.2-6l-0.4-1.3h4.5l0.2,0.7
		c0.2,0.7,0.4,1.4,0.7,2.1c0.3,0.8,0.5,1.5,0.8,2.3c0.3,0.7,0.6,1.4,0.8,2.1c0.3-0.7,0.6-1.3,0.8-2.1c0.3-0.8,0.6-1.5,0.8-2.3
		c0.3-0.8,0.5-1.5,0.7-2.1l0.2-0.7h4.4l-0.4,1.3c-0.6,2.1-1.4,4.1-2.2,6c-0.8,1.9-1.7,3.6-2.5,5.1l-0.3,0.5H104.4z"/>
	<path class="st2" d="M111.7,178.1c-0.6,2-1.4,4-2.2,5.9c-0.8,1.9-1.7,3.6-2.4,5h-2c-0.8-1.5-1.6-3.2-2.4-5
		c-0.8-1.9-1.6-3.8-2.2-5.9h2.4c0.2,0.7,0.4,1.4,0.7,2.2s0.5,1.5,0.8,2.3c0.3,0.8,0.6,1.5,0.9,2.2s0.6,1.4,0.9,1.9
		c0.3-0.6,0.6-1.2,0.9-1.9c0.3-0.7,0.6-1.5,0.9-2.2c0.3-0.8,0.6-1.5,0.8-2.3s0.5-1.5,0.7-2.2H111.7z"/>
	<path class="st4" d="M126.8,190.3c-1.3,0-2.5-0.2-3.5-0.6c-1.1-0.4-2-0.9-2.8-1.7c-0.8-0.7-1.4-1.7-1.8-2.7
		c-0.4-1.1-0.6-2.3-0.6-3.6c0-1.4,0.2-2.6,0.7-3.7c0.5-1.1,1.1-2,2-2.7c0.8-0.7,1.8-1.3,2.9-1.7c1.1-0.4,2.2-0.6,3.4-0.6
		c0.8,0,1.5,0,2.1,0.1c0.6,0.1,1.2,0.2,1.6,0.3c0.5,0.1,0.8,0.3,1.2,0.4c0.3,0.1,0.5,0.2,0.6,0.3l0.8,0.4l-1.6,3.5l-1-0.6
		c-0.4-0.2-0.9-0.4-1.6-0.6c-0.7-0.2-1.4-0.2-2.1-0.2c-0.7,0-1.4,0.1-2,0.3c-0.6,0.2-1,0.5-1.4,0.9c-0.4,0.4-0.7,0.9-0.9,1.5
		c-0.2,0.6-0.3,1.3-0.3,2.1c0,0.8,0.1,1.5,0.3,2.1c0.2,0.6,0.5,1.1,0.8,1.5c0.4,0.4,0.8,0.7,1.4,0.9c0.6,0.2,1.3,0.3,2.1,0.3
		c0.6,0,1.2,0,1.6-0.1c0.1,0,0.1,0,0.2,0v-5.6h4.3v8.6l-0.7,0.2c-0.2,0.1-0.5,0.1-0.9,0.2c-0.4,0.1-0.8,0.1-1.3,0.2
		c-0.5,0.1-1,0.1-1.6,0.2C128,190.2,127.4,190.3,126.8,190.3z"/>
	<path class="st4" d="M129.8,181.8h2.3v6.8c-0.2,0.1-0.5,0.1-0.8,0.2s-0.8,0.1-1.3,0.2s-1,0.1-1.5,0.2c-0.6,0-1.1,0.1-1.7,0.1
		c-1.2,0-2.2-0.2-3.2-0.5s-1.8-0.8-2.5-1.5c-0.7-0.6-1.2-1.4-1.6-2.4c-0.4-0.9-0.6-2-0.6-3.2s0.2-2.3,0.6-3.2c0.4-0.9,1-1.7,1.7-2.4
		c0.7-0.6,1.6-1.1,2.5-1.5s2-0.5,3.1-0.5c0.8,0,1.4,0,2,0.1s1.1,0.2,1.5,0.3s0.8,0.2,1,0.3s0.4,0.2,0.5,0.3l-0.7,1.7
		c-0.5-0.3-1.1-0.5-1.9-0.7c-0.8-0.2-1.6-0.3-2.4-0.3c-0.8,0-1.6,0.1-2.3,0.4c-0.7,0.3-1.3,0.7-1.8,1.2c-0.5,0.5-0.9,1.1-1.1,1.8
		c-0.3,0.7-0.4,1.5-0.4,2.4c0,0.9,0.1,1.7,0.3,2.4s0.6,1.3,1.1,1.8c0.5,0.5,1.1,0.9,1.8,1.2s1.5,0.4,2.5,0.4c0.7,0,1.2,0,1.7-0.1
		c0.5-0.1,0.8-0.1,1-0.2V181.8z"/>
	<path class="st2" d="M140.7,190.2c-1.1,0-2-0.1-2.8-0.4c-0.8-0.3-1.5-0.7-2-1.3c-0.5-0.6-0.9-1.2-1.1-2c-0.2-0.7-0.3-1.5-0.3-2.3
		v-7.1h4.2v6.7c0,1.4,0.3,2,0.5,2.2c0.3,0.3,0.8,0.5,1.7,0.5c0.2,0,0.5,0,0.7,0c0.2,0,0.5,0,0.7,0c0,0,0.1,0,0.1,0v-9.3h4.2v12.4
		l-0.8,0.2c-0.5,0.1-1.2,0.2-2.1,0.4C142.8,190.1,141.8,190.2,140.7,190.2z"/>
	<path class="st2" d="M145.6,188.7c-0.5,0.1-1.2,0.2-2,0.4c-0.8,0.1-1.8,0.2-2.9,0.2c-1,0-1.8-0.1-2.4-0.4c-0.7-0.2-1.2-0.6-1.6-1
		c-0.4-0.4-0.7-1-0.9-1.6c-0.2-0.6-0.3-1.3-0.3-2v-6.1h2.2v5.7c0,1.3,0.2,2.3,0.7,2.9s1.3,0.9,2.4,0.9c0.2,0,0.5,0,0.7,0
		c0.3,0,0.5,0,0.7-0.1c0.2,0,0.4,0,0.6-0.1c0.2,0,0.3,0,0.4-0.1v-9.2h2.2V188.7z"/>
	<path class="st2" d="M148.5,190v-12.9h1.7c-0.5-0.1-0.9-0.2-1.3-0.5c-0.5-0.4-0.8-1-0.8-1.7c0-0.7,0.3-1.3,0.8-1.7
		c0.5-0.4,1-0.6,1.7-0.6c0.6,0,1.2,0.2,1.7,0.6c0.5,0.4,0.8,1,0.8,1.7c0,0.7-0.3,1.3-0.8,1.7c-0.4,0.3-0.8,0.5-1.3,0.6h1.7V190
		H148.5z"/>
	<path class="st2" d="M150.6,176.1c-0.4,0-0.7-0.1-1-0.3c-0.3-0.2-0.4-0.5-0.4-0.9s0.1-0.7,0.4-0.9c0.3-0.2,0.6-0.3,1-0.3
		c0.4,0,0.7,0.1,1,0.3c0.3,0.2,0.4,0.5,0.4,0.9s-0.1,0.7-0.4,0.9C151.3,176,151,176.1,150.6,176.1z M151.7,189h-2.2v-10.9h2.2V189z"
		/>
	<path class="st2" d="M161.1,190.2c-1.1,0-2.1-0.2-2.9-0.5c-0.9-0.3-1.7-0.8-2.3-1.3c-0.7-0.6-1.2-1.3-1.5-2.2
		c-0.3-0.8-0.5-1.8-0.5-2.8c0-1,0.1-1.8,0.4-2.6c0.3-0.8,0.7-1.6,1.3-2.2c0.6-0.6,1.3-1.1,2.1-1.4c0.8-0.3,1.7-0.5,2.8-0.5
		c0.8,0,1.5,0.1,2.1,0.3v-4.9l4.2-0.6v17.9l-0.8,0.2c-0.5,0.1-1.2,0.3-2.1,0.4C163.2,190.2,162.2,190.2,161.1,190.2z M160.7,180.5
		c-0.5,0-0.9,0.1-1.2,0.2c-0.3,0.1-0.6,0.3-0.7,0.6c-0.2,0.2-0.3,0.5-0.4,0.9c-0.1,0.4-0.2,0.9-0.2,1.3c0,1,0.3,1.7,0.8,2.2
		c0.5,0.5,1.2,0.8,2.2,0.8c0.6,0,1,0,1.4-0.1c0,0,0,0,0.1,0v-5.5c-0.1-0.1-0.3-0.1-0.5-0.2C161.7,180.6,161.2,180.5,160.7,180.5z"/>
	<path class="st2" d="M163.6,173l2.2-0.3v16c-0.5,0.1-1.2,0.3-2,0.4c-0.8,0.1-1.7,0.2-2.8,0.2c-1,0-1.8-0.1-2.6-0.4
		c-0.8-0.3-1.4-0.6-2-1.1c-0.5-0.5-1-1.1-1.3-1.8c-0.3-0.7-0.4-1.5-0.4-2.4c0-0.8,0.1-1.6,0.4-2.3c0.2-0.7,0.6-1.3,1.1-1.8
		s1.1-0.9,1.8-1.2s1.5-0.4,2.4-0.4c0.7,0,1.4,0.1,1.9,0.3s1,0.3,1.2,0.5V173z M163.6,180.4c-0.3-0.2-0.7-0.4-1.2-0.6
		c-0.5-0.2-1.1-0.3-1.7-0.3c-0.6,0-1.2,0.1-1.6,0.3c-0.5,0.2-0.8,0.5-1.1,0.8c-0.3,0.4-0.5,0.8-0.6,1.3c-0.1,0.5-0.2,1-0.2,1.6
		c0,1.3,0.4,2.3,1.1,3c0.7,0.7,1.7,1,2.9,1c0.6,0,1.1,0,1.5-0.1c0.4,0,0.7-0.1,0.9-0.2V180.4z"/>
	<path class="st2" d="M175.3,190.2c-1.2,0-2.3-0.2-3.2-0.5c-0.9-0.3-1.7-0.8-2.3-1.4c-0.6-0.6-1.1-1.3-1.4-2.2
		c-0.3-0.8-0.4-1.7-0.4-2.6c0-1.1,0.2-2.1,0.6-2.9c0.4-0.8,0.9-1.6,1.5-2.1c0.6-0.6,1.4-1,2.2-1.3c0.8-0.3,1.6-0.4,2.4-0.4
		c2,0,3.5,0.6,4.6,1.7c1.1,1.1,1.6,2.8,1.6,4.9v0.3c0,0.2,0,0.4,0,0.5l-0.1,0.9h-8.2c0.1,0.3,0.3,0.6,0.6,0.8
		c0.5,0.4,1.3,0.6,2.4,0.6c0.7,0,1.3-0.1,1.8-0.2c0.6-0.1,0.9-0.2,1-0.3l1.1-0.5l0.7,3.6l-0.7,0.3c-0.4,0.2-0.9,0.3-1.6,0.5
		C177.1,190.1,176.2,190.2,175.3,190.2z M176.4,181.5c-0.1-0.2-0.2-0.3-0.3-0.5c-0.2-0.2-0.6-0.5-1.4-0.5c-0.4,0-0.7,0.1-1,0.2
		c-0.3,0.1-0.5,0.3-0.7,0.5c-0.1,0.1-0.2,0.2-0.3,0.4H176.4z"/>
	<path class="st2" d="M169,183.5c0-1,0.2-1.8,0.5-2.5c0.3-0.7,0.7-1.3,1.3-1.8c0.5-0.5,1.1-0.8,1.8-1.1c0.7-0.2,1.4-0.4,2.1-0.4
		c1.7,0,3,0.5,3.9,1.4s1.3,2.3,1.3,4.2c0,0.1,0,0.2,0,0.3c0,0.1,0,0.3,0,0.4h-8.6c0.1,1.1,0.5,2,1.1,2.6c0.7,0.6,1.7,0.9,3.1,0.9
		c0.8,0,1.4-0.1,2-0.2c0.5-0.1,0.9-0.2,1.2-0.3l0.3,1.6c-0.3,0.1-0.7,0.3-1.4,0.4c-0.7,0.1-1.5,0.2-2.3,0.2c-1.1,0-2-0.1-2.8-0.4
		c-0.8-0.3-1.4-0.7-2-1.2s-0.9-1.1-1.1-1.8C169.1,185.1,169,184.4,169,183.5z M177.6,182.5c0-0.9-0.2-1.6-0.8-2.2s-1.2-0.9-2.2-0.9
		c-0.5,0-1,0.1-1.4,0.3s-0.7,0.4-1,0.7s-0.5,0.6-0.6,1s-0.3,0.7-0.3,1.1H177.6z"/>
</g>
</svg>
