<?xml version="1.0" encoding="utf-8"?>
<!-- Generator: Adobe Illustrator 24.0.1, SVG Export Plug-In . SVG Version: 6.00 Build 0)  -->
<svg version="1.1" id="Layer_1" xmlns="http://www.w3.org/2000/svg" xmlns:xlink="http://www.w3.org/1999/xlink" x="0px" y="0px"
	 viewBox="0 0 200 200" style="enable-background:new 0 0 200 200;" xml:space="preserve">
<style type="text/css">
	.st0{fill:#F17424;}
	.st1{fill:none;}
	.st2{font-family:'EducatedDeers-Regular';}
	.st3{font-size:24px;}
	.st4{letter-spacing:2;}
</style>
<g>
	<g id="XMLID_1_">
		<g>
			<path class="st0" d="M152.7,20c9.8,13.4,12.2,29.5-2.2,45.2c28.5,3.9,26.2,63.3-4.9,77.3l-44.4,20.1v-0.2l-18.4,8.2
				c-5.5,2.4-9.8-0.5-9.8-6.8V55.4c0-3.5,2.5-7.4,5.6-8.8l55.3-25l-8.1-3.4L70.8,43c-4.8,2-5.1,3.6-5.1,8v102.4c0,2.7,1,4.9,2.6,5.9
				l-3.5,1.6c-5.5,2.4-9.8-0.5-9.8-6.8V45.8c0-3.4-0.1-6.2,5.6-8.8l53.1-24l-6.8-2.8l-52,23.5c-4.8,2.2-6.5,4.2-6.5,8.7v102.4
				c0,2.7,1,4.9,2.6,5.9l-3.5,1.6c-5.5,2.4-9.8-0.5-9.8-6.8V37.2c0-3.4,2.5-7.4,5.6-8.8l2.6-1.2L96.7,4.5
				c14.6-6.5,15.6-5.4,25.9-0.9c2.5,1.1,5.9,2.4,9.1,3.9C144.6,13.3,148.5,14.2,152.7,20z M113.2,129.8c21.7-9.8,19.9-40.4,0-31.4
				l-22.6,10.2V140L113.2,129.8z M113.2,77.3c20.5-9.4,19.9-40.4,0-31.4L90.6,56.1v31.4L113.2,77.3z"/>
		</g>
	</g>
</g>
<rect x="-49.2" y="171.7" class="st1" width="298.4" height="47.4"/>
<text transform="matrix(1 0 0 1 35.5254 188.0779)" class="st2 st3 st4">Blog Dev Guide</text>
</svg>
