<?xml version="1.0" encoding="utf-8"?>
<!-- Generator: Adobe Illustrator 24.0.1, SVG Export Plug-In . SVG Version: 6.00 Build 0)  -->
<svg version="1.1" id="Layer_1" xmlns="http://www.w3.org/2000/svg" xmlns:xlink="http://www.w3.org/1999/xlink" x="0px" y="0px"
	 viewBox="0 0 300 300" style="enable-background:new 0 0 200 200;" xml:space="preserve">
<style type="text/css">
	.st0{fill:#F17424;}
	.st1{fill:none;}
	.st2{font-family:'Ubuntu';}
	.st3{font-size:22.981px;}
	.st4{fill:none;stroke:#000000;stroke-width:1.3132;stroke-miterlimit:6.566;}
</style>
<g>
	<g id="XMLID_1_">
		<g>
			<path class="st0" d="M152.7,20c9.8,13.4,12.2,29.5-2.2,45.2c28.5,3.9,26.2,63.3-4.9,77.3l-44.4,20.1v-0.2l-18.4,8.2
				c-5.5,2.4-9.8-0.5-9.8-6.8V55.4c0-3.5,2.5-7.4,5.6-8.8l55.3-25l-8.1-3.4l-55,24.8C66,45,65.7,46.6,65.7,51v102.4
				c0,2.7,1,4.9,2.6,5.9l-3.5,1.6c-5.5,2.4-9.8-0.5-9.8-6.8V45.8c0-3.4-0.1-6.2,5.6-8.8l53.1-24l-6.8-2.8L54.9,33.7
				c-4.8,2.2-6.5,4.2-6.5,8.7v102.4c0,2.7,1,4.9,2.6,5.9l-3.5,1.6c-5.5,2.4-9.8-0.5-9.8-6.8V37.2c0-3.4,2.5-7.4,5.6-8.8l2.6-1.2
				L96.7,4.5c14.6-6.5,15.6-5.4,25.9-0.9c2.5,1.1,5.9,2.4,9.1,3.9C144.6,13.3,148.5,14.2,152.7,20z M113.2,129.8
				c21.7-9.8,19.9-40.4,0-31.4l-22.6,10.2V140L113.2,129.8z M113.2,77.3c20.5-9.4,19.9-40.4,0-31.4L90.6,56.1v31.4L113.2,77.3z"/>
		</g>
	</g>
</g>
<rect x="17.9" y="174" class="st1" width="164.1" height="23"/>
<text transform="matrix(1 0 0 1 19.9473 191.8311)" class="st2 st3">Blog Dev Guide</text>
<text transform="matrix(1 0 0 1 19.9473 191.8311)" class="st4 st2 st3">Blog Dev Guide</text>
</svg>
