<?xml version="1.0" encoding="utf-8"?>
<!-- Generator: Adobe Illustrator 24.0.1, SVG Export Plug-In . SVG Version: 6.00 Build 0)  -->
<svg version="1.1" id="Layer_1" xmlns="http://www.w3.org/2000/svg" xmlns:xlink="http://www.w3.org/1999/xlink" x="0px" y="0px"
	 viewBox="0 0 189.6 197.1" style="enable-background:new 0 0 189.6 197.1;" xml:space="preserve">
<style type="text/css">
	.st0{fill:#F17424;}
	.st1{fill:none;}
	.st2{stroke:#000000;stroke-width:2;stroke-miterlimit:10;}
	.st3{font-family:'Ubuntu';}
	.st4{font-size:21px;}
	.st5{letter-spacing:2;}
</style>
<g>
	<g id="XMLID_1_">
		<g>
			<path class="st0" d="M146.9,20.1c9.8,13.4,12.2,29.5-2.2,45.2c28.5,3.9,26.2,63.3-4.9,77.3l-44.4,20.1v-0.2L77,170.7
				c-5.5,2.4-9.8-0.5-9.8-6.8V55.5c0-3.5,2.5-7.4,5.6-8.8l55.3-25l-8.1-3.4L65,43.1c-4.8,2-5.1,3.6-5.1,8v102.4c0,2.7,1,4.9,2.6,5.9
				L59,161c-5.5,2.4-9.8-0.5-9.8-6.8V45.9c0-3.4-0.1-6.2,5.6-8.8l53.1-24l-6.8-2.8l-52,23.5c-4.8,2.2-6.5,4.2-6.5,8.7v102.4
				c0,2.7,1,4.9,2.6,5.9l-3.5,1.6c-5.5,2.4-9.8-0.5-9.8-6.8V37.3c0-3.4,2.5-7.4,5.6-8.8l2.6-1.2L90.9,4.6
				c14.6-6.5,15.6-5.4,25.9-0.9c2.5,1.1,5.9,2.4,9.1,3.9C138.8,13.4,142.7,14.3,146.9,20.1z M107.4,129.9c21.7-9.8,19.9-40.4,0-31.4
				l-22.6,10.2v31.4L107.4,129.9z M107.4,77.4c20.5-9.4,19.9-40.4,0-31.4L84.8,56.2v31.4L107.4,77.4z"/>
		</g>
	</g>
</g>
<rect y="174.8" class="st1" width="189.6" height="20.4"/>
<text transform="matrix(1 0 0 1 8.0097 191.1135)" class="st2 st3 st4 st5">Blog Dev Guide</text>
</svg>
