<svg version="1.1" id="Layer_1" xmlns="http://www.w3.org/2000/svg" xmlns:xlink="http://www.w3.org/1999/xlink" x="0px" y="0px"
	 viewBox="0 0 500 150" width="300" height="100"style="enable-background:new 0 0 500 150;" xml:space="preserve">
<style type="text/css">
	.st0{fill:#F17424;}
	.st1{fill:none;}
	.st2{fill:#F15A24;}
	.st3{font-family:'Ubuntu';}
	.st4{font-size:92px;}
	.st5{letter-spacing:1.6;}
	.st6{fill:#FFFFFF;stroke:#000000;stroke-width:10;stroke-miterlimit:10;}
	.st7{fill:none;stroke:#F15A24;stroke-width:8;stroke-miterlimit:10;}
	.st8{fill:#0000B4;stroke:#0050D1;stroke-width:8;stroke-miterlimit:10;}
	.st9{fill:#FFFFFF;stroke:#000D35;stroke-width:10;stroke-miterlimit:10;}
	.st10{fill:none;stroke:#FF0000;stroke-width:8;stroke-miterlimit:10;}
	.st11{fill:#FFFFFF;stroke:#05002A;stroke-width:10;stroke-miterlimit:10;}
</style>
<g>
	<g id="XMLID_1_">
		<g>
			<path class="st0" d="M79.6,17.5C86.4,29.2,88,43.4,78.1,57c19.7,3.4,18.1,55.4-3.4,67.7L44,142.3v-0.2l-12.7,7.2
				c-3.8,2.1-6.8-0.5-6.8-5.9v-95c0-3.1,1.7-6.5,3.9-7.7l38.2-21.9l-5.6-3L23,37.5c-3.3,1.9-3.5,3.2-3.5,7.1v89.7
				c0,2.4,0.7,4.3,1.8,5.2l-2.4,1.4c-3.8,2.1-6.8-0.5-6.8-5.9V40c0-3-0.1-5.5,3.9-7.7l36.7-21L48,8.8L12,29.5
				c-3.3,1.9-4.5,3.7-4.5,7.6v89.7c0,2.4,0.7,4.3,1.8,5.2l-2.4,1.4c-3.8,2.1-6.8-0.5-6.8-5.9v-95c0-3,1.7-6.5,3.9-7.7l1.8-1L40.9,4
				C51-1.7,51.7-0.7,58.8,3.2c1.7,0.9,4.1,2.1,6.3,3.4C74,11.6,76.7,12.4,79.6,17.5z M52.3,113.6c15-8.6,13.7-35.4,0-27.5L36.7,95
				v27.5L52.3,113.6z M52.3,67.7c14.2-8.2,13.7-35.4,0-27.5l-15.6,8.9v27.5L52.3,67.7z"/>
		</g>
	</g>
</g>
<g>
	<rect x="92" y="53" class="st1" width="408" height="97"/>
	<text transform="matrix(0.6436 0 0 1 92 124.3906)" class="st2 st3 st4 st5">log</text>
	<text transform="matrix(0.6436 0 0 1 92 124.3906)" class="st6 st3 st4 st5">log</text>
	<text transform="matrix(0.6436 0 0 1 184.2285 124.3906)" class="st2 st3 st4 st5"> </text>
	<text transform="matrix(0.6436 0 0 1 184.2285 124.3906)" class="st7 st3 st4 st5"> </text>
	<text transform="matrix(0.6436 0 0 1 200.2539 124.3906)" class="st2 st3 st4 st5">D</text>
	<text transform="matrix(0.6436 0 0 1 200.2539 124.3906)" class="st8 st3 st4 st5">D</text>
	<text transform="matrix(0.6436 0 0 1 244.791 124.3906)" class="st2 st3 st4 st5">ev</text>
	<text transform="matrix(0.6436 0 0 1 244.791 124.3906)" class="st9 st3 st4 st5">ev</text>
	<text transform="matrix(0.6436 0 0 1 312.1758 124.3906)" class="st2 st3 st4 st5"> </text>
	<text transform="matrix(0.6436 0 0 1 312.1758 124.3906)" class="st7 st3 st4 st5"> </text>
	<text transform="matrix(0.6436 0 0 1 328.2012 124.3906)" class="st2 st3 st4 st5">G</text>
	<text transform="matrix(0.6436 0 0 1 328.2012 124.3906)" class="st10 st3 st4 st5">G</text>
	<text transform="matrix(0.6436 0 0 1 370.293 124.3906)" class="st2 st3 st4 st5">uide</text>
	<text transform="matrix(0.6436 0 0 1 370.293 124.3906)" class="st11 st3 st4 st5">uide</text>
</g>
</svg>
